<svg width="126" height="52" viewBox="0 0 126 52" fill="none" xmlns="http://www.w3.org/2000/svg">
<path d="M15.4643 29.8617L10.693 23.1925L8.50505 25.1695V29.8617H1.25587V11.4093H8.50505V17.2613L14.6471 11.4093H23.6361L15.5697 18.7639L24.0051 29.8617H15.4643ZM41.807 29.8617L40.7789 27.252H32.5544L31.5263 29.8617H24.0135L32.5544 11.4093H40.7789L49.3198 29.8617H41.807ZM34.4524 22.5071H38.8809L36.6666 16.8659L34.4524 22.5071ZM65.3723 11.4093H72.6215V29.8617H64.9769L57.6223 19.8447V29.8617H50.3731V11.4093H57.9914L65.3723 21.4527V11.4093ZM89.8305 11.4093H97.765L89.2242 23.3243V29.8617H81.9487V23.3243L73.4078 11.4093H81.3424L85.5864 18.2894L89.8305 11.4093ZM118.018 25.1168V29.8617H98.5637V11.4093H117.781V16.1806H105.813V18.2631H117.042V22.7707H105.813V25.1168H118.018Z" fill="white"/>
<path d="M118.218 9.27966C116.948 9.95752 115.851 10.9269 114.926 12.1878C114.007 13.444 113.168 14.9324 112.409 16.6532C111.651 18.3739 110.885 20.2676 110.113 22.3344C109.961 22.7326 109.795 23.1687 109.615 23.6427C109.615 23.6522 109.612 23.6593 109.608 23.664C109.143 24.9534 108.591 26.3612 107.951 27.8876C107.316 29.414 106.579 30.8716 105.74 32.2605C104.905 33.6494 103.957 34.7776 102.895 35.6451C102.493 35.9627 102.011 36.2305 101.452 36.4486C100.897 36.6666 100.345 36.759 99.7953 36.7259C99.1886 36.6642 98.6364 36.3988 98.1386 35.9295C97.6409 35.4602 97.2593 34.8463 96.9938 34.0879C96.79 33.4337 96.6668 32.763 96.6241 32.0756C96.5814 31.3883 96.5696 30.7247 96.5886 30.0847L96.6668 21.1043L89.8905 28.5347C88.7055 29.8525 87.4588 31.1845 86.1505 32.5307C84.8469 33.8722 83.4675 35.1331 82.0122 36.3135C80.5569 37.4938 79.0163 38.4987 77.3904 39.3283C76.9259 39.5653 76.4234 39.7667 75.883 39.9327C75.3426 40.0986 74.8046 40.172 74.269 40.1531C73.8992 40.1389 73.5413 40.0678 73.1953 39.9398C72.854 39.8118 72.5364 39.6056 72.2425 39.3212C71.8822 38.9609 71.6144 38.5414 71.439 38.0626C71.2684 37.5886 71.1617 37.1003 71.1191 36.5979C71.0764 36.1001 71.0693 35.6309 71.0977 35.19C71.3158 32.3364 72.0932 29.4187 73.4299 26.4371C76.3642 20.0614 80.0521 15.8473 84.4937 13.7948C86.2619 12.9842 87.7076 12.9297 88.8311 13.6312C90.5518 14.7025 91.0472 17.2173 90.3172 21.1754C90.2982 21.2749 90.2484 21.3531 90.1678 21.41C90.0873 21.4622 89.9972 21.4788 89.8977 21.4598C89.7981 21.4408 89.7199 21.3934 89.663 21.3176C89.6109 21.237 89.5919 21.1469 89.6061 21.0474C90.2603 17.4306 89.8716 15.1623 88.44 14.2427C87.5441 13.6739 86.3282 13.7426 84.7924 14.4489C80.5119 16.4256 76.9425 20.5212 74.0841 26.7357C72.7805 29.6415 72.0244 32.4738 71.8159 35.2327C71.7685 35.8299 71.8016 36.4604 71.9154 37.124C72.0339 37.7877 72.3089 38.347 72.7402 38.8021C73.1289 39.1624 73.5721 39.3662 74.0699 39.4136C74.5723 39.461 75.0843 39.4089 75.6057 39.2572C76.1272 39.1055 76.6154 38.9135 77.0705 38.6812C78.6585 37.8706 80.1659 36.8847 81.5927 35.7233C83.0195 34.5667 84.3776 33.3247 85.667 31.9974C86.9563 30.6702 88.1888 29.3547 89.3644 28.0512L96.7663 19.9239C96.8801 19.8102 97.0128 19.7794 97.1645 19.8315C97.3114 19.8979 97.3873 20.0116 97.392 20.1728L97.3067 30.0918C97.2925 30.7318 97.302 31.3717 97.3351 32.0117C97.3731 32.6468 97.4868 33.2607 97.6764 33.8532C97.8518 34.3794 98.1268 34.8534 98.5013 35.2753C98.8805 35.6972 99.3332 35.9413 99.8593 36.0077C100.243 36.0361 100.67 35.965 101.139 35.7944C101.609 35.6285 102.045 35.3915 102.448 35.0834C103.457 34.2538 104.365 33.1659 105.171 31.8197C105.981 30.4687 106.697 29.0466 107.318 27.5534C107.939 26.0555 108.48 24.6761 108.939 23.4152C108.944 23.3962 108.951 23.3772 108.961 23.3583C109.131 22.8937 109.29 22.4671 109.437 22.0784C110.229 19.9642 111.013 18.0255 111.791 16.2621C112.573 14.4987 113.445 12.9676 114.407 11.6688C115.374 10.3699 116.533 9.36024 117.884 8.63972C117.974 8.59232 118.064 8.58521 118.154 8.61839C118.249 8.64683 118.32 8.70372 118.368 8.78904C118.415 8.88385 118.425 8.97628 118.396 9.06635C118.368 9.15641 118.308 9.22752 118.218 9.27966ZM113.248 31.0873C112.893 31.5281 112.542 31.8789 112.196 32.1396C111.85 32.4004 111.523 32.5947 111.215 32.7227C110.907 32.8507 110.634 32.9336 110.397 32.9716C110.16 33.0095 109.977 33.0284 109.849 33.0284C109.826 33.0284 109.804 33.0284 109.785 33.0284C109.022 32.9905 108.539 32.6611 108.335 32.0401C108.212 31.6087 108.259 31.156 108.477 30.682C108.695 30.208 109.044 29.7979 109.522 29.4519C109.816 29.2481 110.127 29.1225 110.454 29.0751C110.662 29.0514 110.854 29.0798 111.03 29.1604C111.21 29.241 111.321 29.3808 111.364 29.5799C111.411 29.9354 111.291 30.2293 111.001 30.4616C110.717 30.6939 110.373 30.8787 109.97 31.0162C109.567 31.1537 109.21 31.2579 108.897 31.3291C108.859 31.5329 108.863 31.7106 108.911 31.8623C108.987 32.0804 109.11 32.2297 109.281 32.3103C109.456 32.3861 109.631 32.4241 109.807 32.4241C109.935 32.4335 110.15 32.4075 110.454 32.3458C110.757 32.2795 111.11 32.1254 111.513 31.8837C111.916 31.6372 112.336 31.2461 112.772 30.7104C112.829 30.6441 112.897 30.6062 112.978 30.5967C113.059 30.5872 113.132 30.6085 113.198 30.6607C113.265 30.7176 113.303 30.7863 113.312 30.8669C113.322 30.9427 113.3 31.0162 113.248 31.0873ZM109.871 29.9425C109.586 30.1511 109.364 30.3763 109.202 30.618C109.667 30.4853 110.013 30.3597 110.241 30.2412C110.468 30.1227 110.615 30.0184 110.681 29.9283C110.752 29.8335 110.783 29.76 110.774 29.7079C110.736 29.6842 110.677 29.6723 110.596 29.6723C110.577 29.6723 110.556 29.6747 110.532 29.6794C110.305 29.7079 110.084 29.7956 109.871 29.9425ZM123.352 30.5256C123.404 30.4592 123.471 30.4213 123.551 30.4118C123.632 30.4023 123.708 30.4237 123.779 30.4758C123.845 30.5327 123.883 30.6014 123.893 30.682C123.902 30.7626 123.881 30.8361 123.829 30.9024C123.596 31.1963 123.264 31.5044 122.833 31.8268C122.406 32.1491 121.947 32.4264 121.454 32.6587C120.961 32.891 120.501 33.0119 120.074 33.0213C120.074 33.0213 120.072 33.0213 120.067 33.0213C119.797 33.0213 119.581 32.9763 119.42 32.8862C119.264 32.7914 119.145 32.6919 119.065 32.5876C118.78 32.2273 118.707 31.6467 118.844 30.8455C118.114 31.2864 117.413 31.6324 116.739 31.8837C116.066 32.1349 115.426 32.3458 114.82 32.5165C114.782 32.5307 114.741 32.5426 114.699 32.552C114.694 32.6374 114.677 32.7203 114.649 32.8009C114.592 32.9668 114.512 33.109 114.407 33.2275C114.303 33.3508 114.199 33.4551 114.094 33.5404C113.516 34.0144 112.857 34.3178 112.118 34.4505C112.042 34.4647 111.971 34.4719 111.904 34.4719C111.691 34.4719 111.528 34.4008 111.414 34.2585C111.314 34.1258 111.274 33.9765 111.293 33.8106C111.312 33.6447 111.383 33.5025 111.506 33.384C111.862 33.0711 112.25 32.8199 112.672 32.6303C113.089 32.4359 113.54 32.2676 114.023 32.1254C113.962 31.9927 113.907 31.8931 113.86 31.8268C113.765 31.7035 113.661 31.5779 113.547 31.4499C113.405 31.2935 113.27 31.1229 113.142 30.938C112.838 30.4497 112.777 29.9947 112.957 29.5728C113.033 29.4164 113.13 29.286 113.248 29.1817C113.371 29.0727 113.492 28.985 113.611 28.9186C114.341 28.4778 115.133 28.2408 115.986 28.2076C116.033 28.2028 116.114 28.2123 116.228 28.236C116.341 28.255 116.446 28.3095 116.54 28.3996C116.63 28.5038 116.668 28.6247 116.654 28.7622C116.64 28.8475 116.611 28.9186 116.569 28.9755C116.531 29.0276 116.5 29.0656 116.476 29.0893C116.216 29.3452 115.917 29.5467 115.58 29.6937C115.5 29.7268 115.422 29.7292 115.346 29.7008C115.275 29.6676 115.22 29.6131 115.182 29.5372C115.149 29.4566 115.147 29.3784 115.175 29.3026C115.204 29.2267 115.258 29.1699 115.339 29.1319C115.524 29.0514 115.697 28.9471 115.858 28.8191C115.166 28.876 114.521 29.0822 113.924 29.4377C113.843 29.4851 113.763 29.542 113.682 29.6083C113.606 29.6747 113.547 29.7482 113.504 29.8288C113.452 29.952 113.445 30.0847 113.483 30.2269C113.521 30.3644 113.575 30.49 113.646 30.6038C113.751 30.7555 113.872 30.9048 114.009 31.0517C114.128 31.1797 114.241 31.3196 114.35 31.4713C114.464 31.6277 114.549 31.7841 114.606 31.9405C114.616 31.9405 114.623 31.9405 114.628 31.9405C114.632 31.9358 114.64 31.9334 114.649 31.9334C115.303 31.7486 115.998 31.5139 116.732 31.2295C117.472 30.9404 118.245 30.5208 119.05 29.971C119.131 29.6818 119.233 29.3737 119.356 29.0466C119.731 28.0654 120.231 27.0178 120.856 25.9038H114.834C114.791 25.9038 114.753 25.8896 114.72 25.8611C114.692 25.828 114.677 25.79 114.677 25.7474C114.677 25.7047 114.692 25.6692 114.72 25.6407C114.753 25.6123 114.791 25.5981 114.834 25.5981H121.034C121.617 24.5931 122.21 23.7304 122.812 23.0099C123.419 22.2846 123.954 21.8675 124.419 21.7584C124.679 21.7205 124.869 21.8201 124.988 22.0571C125.111 22.3273 125.078 22.7729 124.888 23.3938C124.703 24.0148 124.359 24.7496 123.857 25.5981H125.72C125.763 25.5981 125.798 25.6123 125.827 25.6407C125.86 25.6692 125.876 25.7047 125.876 25.7474C125.876 25.79 125.86 25.828 125.827 25.8611C125.798 25.8896 125.763 25.9038 125.72 25.9038H123.665C123.665 25.9085 123.663 25.9109 123.658 25.9109C123.658 25.9157 123.658 25.918 123.658 25.918C123.653 25.9228 123.648 25.9299 123.644 25.9394C123.639 25.9441 123.634 25.9512 123.629 25.9607C123.155 26.7002 122.558 27.4728 121.838 28.2787C121.833 28.2929 121.826 28.3048 121.816 28.3142C121.812 28.319 121.804 28.3237 121.795 28.3285C121.146 29.0585 120.392 29.7837 119.534 30.5042C119.33 31.3528 119.332 31.9192 119.541 32.2036C119.655 32.3411 119.832 32.4098 120.074 32.4098C120.605 32.3767 121.2 32.1562 121.859 31.7486C122.523 31.3362 123.02 30.9285 123.352 30.5256ZM113.703 33.0711C113.836 32.9621 113.933 32.8625 113.995 32.7725C113.592 32.9005 113.217 33.0474 112.871 33.2133C112.521 33.3792 112.203 33.5878 111.919 33.839C111.909 33.8438 111.904 33.8532 111.904 33.8675C111.923 33.8675 111.959 33.8627 112.011 33.8532C112.646 33.7347 113.21 33.474 113.703 33.0711ZM124.454 22.377C124.156 22.4908 123.762 22.8392 123.274 23.4223C122.786 24.0053 122.276 24.7306 121.745 25.5981H123.132C123.644 24.778 124.002 24.0859 124.205 23.5218C124.409 22.953 124.492 22.5714 124.454 22.377ZM119.925 29.2599C119.925 29.2694 119.923 29.2789 119.918 29.2884C119.913 29.2978 119.911 29.305 119.911 29.3097C120.887 28.5133 121.895 27.378 122.933 25.9038H121.56C120.92 26.9751 120.375 28.0938 119.925 29.2599Z" fill="#FF8432"/>
</svg>
