<svg width="57" height="72" viewBox="0 0 57 72" fill="none" xmlns="http://www.w3.org/2000/svg">
<path fill-rule="evenodd" clip-rule="evenodd" d="M10.6669 26.9354C9.3222 28.8449 9.01958 31.2996 9.86019 33.4785L22.0923 65.1844C23.5004 68.8344 27.6291 70.6191 31.2526 69.1442L50.4432 61.3331C54.0667 59.8583 55.7754 55.6976 54.2343 52.1017L40.8473 20.8659C39.9273 18.7193 37.9964 17.1737 35.7005 16.746L22.509 14.2888C20.9273 13.9941 19.319 14.6488 18.3926 15.9643L10.6669 26.9354ZM24.7202 25.6158C26.2984 24.9735 27.0569 23.1735 26.4146 21.5954C25.7723 20.0173 23.9723 19.2587 22.3941 19.901C20.816 20.5433 20.0574 22.3434 20.6998 23.9215C21.3421 25.4996 23.1421 26.2582 24.7202 25.6158Z" fill="#FE5828"/>
<path d="M17.0909 17.8406C12.2024 14.501 15.3297 7.45472 17.6157 6.52429C19.9016 5.59385 21.7492 4.61975 23.0874 11.1808C24.0436 15.8689 24.1745 20.4441 24.109 22.7203C24.0999 23.0378 23.7456 23.2134 23.4796 23.0398C22.6946 22.5274 21.3523 21.6713 20.7995 21.4383" stroke="white" stroke-width="1.23402"/>
<path d="M39.2628 42.0683C39.1309 42.122 38.9951 42.171 38.8571 42.2145C36.9919 42.7932 35.1084 43.4569 33.2381 44.194L36.9788 53.3843C36.9912 53.4149 37.0019 53.4462 37.0114 53.477C38.6369 52.7713 40.217 51.9591 41.744 51.0447C42.638 50.5087 43.1274 49.4634 42.9893 48.3817C42.7423 46.4509 41.7554 43.5133 40.684 41.2001C40.2711 41.5582 39.7928 41.8526 39.2628 42.0683Z" fill="white"/>
<path d="M31.4716 44.9131C29.6194 45.6921 27.8099 46.5326 26.0792 47.4186C25.9432 47.4876 25.8068 47.5505 25.6687 47.6067C25.1423 47.821 24.5974 47.9441 24.0535 47.9755C24.9014 50.3776 26.2463 53.1663 27.4167 54.7202C28.0729 55.5899 29.1535 55.9973 30.1677 55.7566C31.8997 55.3456 33.5974 54.8225 35.2537 54.1924C35.239 54.1638 35.2247 54.1339 35.2123 54.1033L31.4716 44.9131Z" fill="white"/>
<path d="M39.9297 36.6195L39.7581 36.3996C39.1618 35.6565 38.0486 35.358 36.9856 35.6574C36.9353 35.6715 36.8841 35.6861 36.8329 35.7006C36.7984 35.5929 36.7595 35.487 36.7166 35.3816C35.7775 33.0744 33.1558 31.9527 30.8735 32.8817C29.7929 33.3215 28.9789 34.1431 28.5213 35.1313C27.5037 34.7435 26.3472 34.724 25.2666 35.1638C22.9843 36.0928 21.8912 38.7265 22.8303 41.0337C22.8736 41.14 22.9213 41.2444 22.9713 41.3469C22.9236 41.3726 22.8768 41.398 22.8291 41.4237C21.8596 41.9527 21.2717 42.9446 21.3652 43.8912L21.3956 44.1675C21.4878 44.9299 21.9967 45.5678 22.7558 45.874C23.4381 46.1496 24.2241 46.1341 24.9501 45.8385C25.0374 45.803 25.1241 45.7635 25.209 45.7195C26.9958 44.8054 28.8571 43.9417 30.7529 43.1449L28.8762 38.534L30.6427 37.815L32.5195 42.4259C34.4325 41.6714 36.3684 40.9884 38.2853 40.3939C39.1356 40.1255 39.8175 39.5457 40.1496 38.7901C40.4782 38.0412 40.396 37.2295 39.9297 36.6195ZM25.5016 39.9454C25.1687 39.1277 25.5562 38.1942 26.365 37.865C27.1552 37.5434 28.067 37.9312 28.4186 38.7109C27.4431 39.131 26.481 39.5709 25.5387 40.029C25.5255 40.0018 25.5133 39.9742 25.5016 39.9454ZM31.9728 35.5825C32.7817 35.2532 33.7109 35.6508 34.0437 36.4685C34.0551 36.4964 34.0661 36.5234 34.0753 36.5512C33.0813 36.8823 32.0845 37.2397 31.0934 37.6211C30.8006 36.8175 31.1827 35.9041 31.9728 35.5825Z" fill="white"/>
</svg>
